<svg width="93" height="37" viewBox="0 0 93 37" fill="none" xmlns="http://www.w3.org/2000/svg">
<rect x="0.5" y="0.5" width="92" height="36" rx="3.5" fill="#E7EFFB"/>
<rect x="0.5" y="0.5" width="92" height="36" rx="3.5" stroke="#6D6AFE"/>
<path d="M12 23.98H26V9.98H12V23.98Z" fill="black"/>
<path d="M43.5664 17.1348V18.0234H32.4922V17.1348H43.5664ZM33.0938 15.6855C35.2402 15.5146 37.2842 14.5645 37.4209 13.3066H33.5039V12.4316H42.582V13.3066H38.6514C38.7607 14.5645 40.8184 15.5146 42.9785 15.6855L42.623 16.5332C40.6338 16.3281 38.7607 15.5557 38.0293 14.332C37.3047 15.5557 35.4385 16.3281 33.4492 16.5332L33.0938 15.6855ZM33.832 19.9648V19.1445H42.1445V21.8926H34.9258V23.123H42.5137V23.9707H33.8594V21.0859H41.0918V19.9648H33.832ZM50.7578 13.2793C50.7578 13.9697 50.6963 14.6465 50.5596 15.3027H53.5879V11.9395H54.6543V24.1074H53.5879V19.4316H50.1562V18.543H53.5879V16.1777H50.3408C49.6436 18.4336 48.0371 20.416 45.166 21.8105L44.6055 20.9355C47.8389 19.3701 49.4521 17.0254 49.6777 14.1543H45.1387V13.2793H50.7578ZM60.834 14.4961C60.8408 15.9521 62.0576 17.2852 63.8555 17.8184L63.3496 18.6387C61.9482 18.2148 60.8613 17.3125 60.3213 16.1572C59.7949 17.4287 58.667 18.4131 57.2246 18.8848L56.6914 18.0371C58.5029 17.4902 59.7744 16.0957 59.7812 14.4961V14.2637H57.0332V13.375H59.7812V11.8984H60.8613V13.375H63.582V14.2637H60.834V14.4961ZM57.9219 23.2324C59.877 22.918 61.6543 21.8516 61.832 20.5527H58.4004V19.6777H66.4121V20.5527H62.9668C63.1377 21.8242 64.9287 22.918 66.877 23.2324L66.4805 24.0664C64.7031 23.7725 63.0898 22.8906 62.3926 21.6738C61.7021 22.8838 60.0957 23.752 58.332 24.0527L57.9219 23.2324ZM65.127 19.0215V11.9531H66.1934V14.9609H68.0254V15.8633H66.1934V19.0215H65.127ZM78.8398 11.9531V24.1074H77.7598V11.9531H78.8398ZM68.9414 20.9492C72.2295 19.3906 73.9111 17.0596 74.1504 14.1543H69.502V13.2793H75.2441C75.2305 16.7725 73.6035 19.8691 69.5293 21.8242L68.9414 20.9492Z" fill="black"/>
</svg>
